<?xml version="1.0" encoding="utf-8"?>
<!-- Generator: Adobe Illustrator 21.0.0, SVG Export Plug-In . SVG Version: 6.00 Build 0)  -->
<svg version="1.1" id="Layer_1" xmlns="http://www.w3.org/2000/svg" xmlns:xlink="http://www.w3.org/1999/xlink" x="0px" y="0px"
	 viewBox="0 0 146.8 41" style="enable-background:new 0 0 146.8 41;" xml:space="preserve">
<style type="text/css">
	.st0{fill:#FFFFFF;}
</style>
<path class="st0" d="M111,27.6l-0.2,0.9c-0.2-0.1-0.4-0.2-0.7-0.3c-0.3-0.1-0.6-0.1-0.9-0.1c-0.4,0-0.8,0.1-1.1,0.3
	c-0.3,0.2-0.4,0.5-0.4,0.9c0,0.3,0.1,0.6,0.3,0.7c0.2,0.2,0.5,0.4,1,0.7c0.5,0.3,0.9,0.6,1.1,0.9s0.4,0.7,0.4,1.2
	c0,0.7-0.3,1.2-0.8,1.7c-0.5,0.4-1.2,0.6-2.1,0.6c-0.4,0-0.7,0-1-0.1s-0.5-0.1-0.8-0.2l0.2-0.9c0.3,0.2,0.6,0.3,0.8,0.5
	c0.3,0.1,0.6,0.2,1,0.2c0.5,0,1-0.1,1.3-0.4c0.3-0.3,0.5-0.6,0.5-1c0-0.3-0.1-0.6-0.3-0.8c-0.2-0.2-0.6-0.5-1-0.7
	c-0.5-0.3-0.8-0.6-1.1-0.8c-0.2-0.3-0.3-0.6-0.3-1c0-0.5,0.1-0.9,0.3-1.2c0.2-0.3,0.5-0.6,0.9-0.7c0.4-0.2,0.8-0.2,1.2-0.2
	C109.8,27.4,110.4,27.5,111,27.6"/>
<path class="st0" d="M113.1,35.1c-0.6,0-1.1-0.2-1.4-0.5c-0.3-0.4-0.4-0.8-0.4-1.5c0-0.4,0.1-0.8,0.2-1.2c0.1-0.4,0.3-0.8,0.5-1.1
	c0.2-0.3,0.5-0.6,0.8-0.8c0.3-0.2,0.7-0.3,1.2-0.3c0.3,0,0.6,0,0.8,0.1c0.2,0.1,0.4,0.2,0.6,0.4c0.2,0.2,0.3,0.4,0.3,0.6
	c0.1,0.2,0.1,0.5,0.1,0.8c0,0.6-0.1,1.2-0.3,1.7c-0.2,0.5-0.5,0.9-0.9,1.3C114.2,34.9,113.7,35.1,113.1,35.1 M112.2,33.1
	c0,1,0.4,1.5,1.1,1.5c0.4,0,0.7-0.2,0.9-0.5c0.3-0.3,0.4-0.7,0.6-1.2c0.1-0.5,0.2-0.9,0.2-1.4c0-0.4-0.1-0.7-0.3-1
	c-0.2-0.2-0.4-0.3-0.8-0.3s-0.7,0.1-0.9,0.4c-0.3,0.3-0.4,0.7-0.6,1.1C112.3,32.2,112.2,32.7,112.2,33.1"/>
<path class="st0" d="M117,35l0.9-4.6H117l0.1-0.5h0.9v-0.2c0.1-0.4,0.2-0.8,0.3-1c0.1-0.3,0.3-0.6,0.5-0.8c0.2-0.2,0.6-0.4,1-0.4
	c0.2,0,0.5,0,0.7,0.1c0.2,0,0.4,0.1,0.5,0.1l-0.1,0.6c-0.1-0.1-0.3-0.2-0.4-0.2c-0.1-0.1-0.3-0.1-0.5-0.1c-0.3,0-0.5,0.1-0.6,0.2
	c-0.2,0.1-0.3,0.3-0.4,0.4c-0.1,0.2-0.1,0.4-0.2,0.6c0,0.2-0.1,0.4-0.1,0.5v0.2h1.5l-0.1,0.5h-1.5l-0.9,4.6H117z"/>
<path class="st0" d="M122.8,34.5l-0.1,0.5c-0.3,0-0.5,0-0.6,0c-0.5,0-0.8-0.1-1-0.3s-0.3-0.4-0.3-0.8c0-0.2,0-0.4,0.1-0.6l0.6-3.1
	h-0.9l0.1-0.5h0.9l0.2-1.2l0.9-0.5l-0.4,1.7h1.4l-0.1,0.5h-1.4l-0.5,2.4c-0.1,0.3-0.1,0.6-0.1,0.8s0,0.4,0,0.5
	c0,0.2,0.1,0.3,0.2,0.4c0.1,0.1,0.3,0.1,0.5,0.1C122.5,34.6,122.6,34.6,122.8,34.5"/>
<polygon class="st0" points="124.8,35 124.5,29.9 125.2,29.9 125.5,33.9 125.5,33.9 127.4,29.9 128,29.9 128.4,33.9 128.5,33.9 
	130.2,29.9 130.9,29.9 128.7,35 127.9,35 127.4,31 127.4,31 125.6,35 "/>
<path class="st0" d="M134,35l0.2-0.9l0,0c-0.1,0.3-0.3,0.5-0.6,0.7c-0.2,0.2-0.6,0.3-1,0.3c-0.5,0-0.8-0.2-1.1-0.5
	c-0.2-0.3-0.3-0.8-0.3-1.3c0-0.4,0-0.8,0.1-1.2c0.1-0.4,0.2-0.8,0.4-1.1c0.2-0.3,0.4-0.6,0.7-0.8c0.3-0.2,0.6-0.3,1-0.3
	c0.6,0,1.1,0.3,1.3,0.9l0,0l0.1-0.8h0.8l-1,5.1L134,35L134,35z M132.1,33.2c0,0.4,0.1,0.7,0.2,1c0.1,0.3,0.3,0.4,0.6,0.4
	s0.6-0.1,0.8-0.3s0.4-0.5,0.5-0.8s0.2-0.6,0.3-1c0.1-0.3,0.1-0.6,0.1-0.8c0-0.3-0.1-0.7-0.2-1c-0.1-0.3-0.4-0.5-0.7-0.5
	s-0.6,0.2-0.8,0.5s-0.4,0.7-0.5,1.2C132.2,32.3,132.1,32.8,132.1,33.2"/>
<path class="st0" d="M136.6,35l1-5.1h0.8l-0.2,1.1l0,0c0.2-0.3,0.3-0.5,0.5-0.7c0.1-0.2,0.3-0.3,0.5-0.4s0.5-0.1,0.8-0.1l-0.2,0.9
	h-0.2c-0.4,0-0.6,0.1-0.9,0.2c-0.2,0.1-0.4,0.3-0.5,0.4c-0.1,0.2-0.2,0.4-0.3,0.6c-0.1,0.2-0.1,0.4-0.2,0.7l-0.4,2.4H136.6z"/>
<path class="st0" d="M143.5,34.4l-0.1,0.5c-0.5,0.1-0.9,0.2-1.2,0.2c-1.4,0-2.1-0.7-2.1-2.2c0-0.9,0.2-1.6,0.6-2.2
	c0.4-0.6,1-0.9,1.8-0.9c0.3,0,0.6,0.1,0.9,0.2c0.2,0.1,0.4,0.3,0.6,0.5c0.1,0.2,0.2,0.5,0.2,0.8c0,0.2,0,0.4-0.1,0.6h-3
	c-0.1,0.3-0.1,0.5-0.1,0.8c0,0.4,0.1,0.8,0.2,1.1c0.1,0.3,0.3,0.5,0.6,0.7c0.2,0.2,0.5,0.2,0.8,0.2
	C142.9,34.6,143.2,34.5,143.5,34.4 M141.2,31.3h2.2v-0.1c0-0.1,0-0.1,0-0.1c0-0.2-0.1-0.4-0.3-0.6s-0.4-0.2-0.7-0.2
	C141.8,30.2,141.4,30.6,141.2,31.3"/>
<path class="st0" d="M43.4,11.1H49v7.8c0,0.4,0.1,0.6,0.3,0.9c0.2,0.2,0.4,0.3,0.7,0.4c0.7-0.1,1-0.5,1-1.3v-7.8h5.5v8
	c0,1-0.2,1.8-0.5,2.6c-0.3,0.8-0.7,1.4-1.3,1.9s-1.3,0.9-2.1,1.2c-0.8,0.3-1.7,0.4-2.8,0.4c-1.9-0.1-3.5-0.6-4.6-1.6
	c-1.2-1-1.8-2.5-1.8-4.5C43.4,19.1,43.4,11.1,43.4,11.1z"/>
<path class="st0" d="M58.4,24.9V11.1h5.3v1.7c0.5-0.8,1-1.4,1.7-1.6c0.6-0.3,1.4-0.4,2.3-0.4H69v4.8c-1,0-1.9,0.1-2.6,0.2
	c-0.7,0.1-1.3,0.5-1.7,1c-0.5,0.6-0.7,1.4-0.7,2.6L63.9,25h-5.5V24.9z"/>
<path class="st0" d="M70.1,11.1h5.6v7.8c0,0.4,0.1,0.6,0.3,0.9c0.2,0.2,0.4,0.3,0.7,0.4c0.7-0.1,1-0.5,1-1.3v-7.8h5.5v8
	c0,1-0.2,1.8-0.5,2.6c-0.3,0.8-0.7,1.4-1.3,1.9c-0.6,0.5-1.3,0.9-2.1,1.2c-0.8,0.3-1.7,0.4-2.8,0.4c-1.9-0.1-3.5-0.6-4.6-1.6
	c-1.2-1-1.8-2.5-1.8-4.5C70.1,19.1,70.1,11.1,70.1,11.1z"/>
<path class="st0" d="M94.4,5.5h5.6v11.2c0,1.7-0.3,3.1-0.9,4.4s-1.4,2.3-2.6,3c-1.1,0.7-2.5,1.1-4.1,1.1c-1.3,0-2.6-0.3-3.7-1
	c-1.1-0.6-2-1.5-2.6-2.6s-1-2.4-1-3.8v-0.1c0,0,0,0,0-0.1c0-1.1,0.2-2.1,0.5-2.9c0.3-0.9,0.8-1.6,1.5-2.2c0.6-0.6,1.4-1,2.2-1.3
	c0.8-0.3,1.8-0.5,2.8-0.5c0.4,0,0.9,0,1.7,0.1v5.4c-0.5-0.2-1-0.2-1.4-0.2c-0.6,0-1.1,0.2-1.5,0.6s-0.6,0.9-0.6,1.6
	c0,0.5,0.2,1,0.6,1.3s0.9,0.5,1.4,0.5c0.6,0,1-0.2,1.4-0.6s0.6-0.9,0.6-1.5L94.4,5.5L94.4,5.5z"/>
<path class="st0" d="M110.7,19.6V25c-0.7,0.1-1.3,0.1-1.6,0.1c-1.4,0-2.6-0.3-3.7-0.9s-2-1.5-2.6-2.6s-0.9-2.3-0.9-3.7
	c0-1.1,0.2-2.1,0.6-3s0.9-1.7,1.6-2.3s1.5-1.1,2.4-1.4c0.9-0.3,1.9-0.5,3-0.5c1.3,0,2.4,0.3,3.4,0.8s1.8,1.1,2.4,1.9
	c0.6,0.8,1.1,1.7,1.4,2.7s0.4,2,0.4,3.1v5.7h-5.6V18c0-0.6-0.2-1.1-0.6-1.4s-0.9-0.5-1.4-0.5c-0.6,0-1,0.2-1.4,0.5s-0.6,0.8-0.6,1.3
	c0,0.6,0.2,1.1,0.5,1.5s0.8,0.6,1.4,0.6C109.7,19.9,110.2,19.8,110.7,19.6"/>
<path class="st0" d="M118.7,6.7h5.5v4.4h3v4.8h-3v2.7c0,1.2,0.6,1.8,1.7,1.8h1.4V25h-3.1c-1.1,0-2-0.1-2.6-0.4
	c-0.7-0.3-1.3-0.7-1.8-1.4c-0.3-0.5-0.6-1-0.8-1.7c-0.2-0.7-0.3-1.3-0.3-1.7C118.7,19.8,118.7,6.7,118.7,6.7z"/>
<path class="st0" d="M137.7,19.6V25c-0.7,0.1-1.3,0.1-1.6,0.1c-1.4,0-2.6-0.3-3.7-0.9c-1.1-0.6-2-1.5-2.6-2.6s-0.9-2.3-0.9-3.7
	c0-1.1,0.2-2.1,0.6-3c0.4-0.9,0.9-1.7,1.6-2.3c0.7-0.6,1.5-1.1,2.4-1.4c0.9-0.3,1.9-0.5,3-0.5c1.3,0,2.4,0.3,3.4,0.8
	s1.8,1.1,2.4,1.9c0.6,0.8,1.1,1.7,1.4,2.7c0.3,1,0.4,2,0.4,3.1v5.7h-5.6V18c0-0.6-0.2-1.1-0.6-1.4c-0.4-0.3-0.9-0.5-1.4-0.5
	c-0.6,0-1,0.2-1.4,0.5s-0.6,0.8-0.6,1.3c0,0.6,0.2,1.1,0.5,1.5s0.8,0.6,1.4,0.6C136.8,19.9,137.3,19.8,137.7,19.6"/>
<path class="st0" d="M23.5,3.2v7.5H30v19.2H10V10.7h7V3.2H7.8C5.1,3.2,3,5.4,3,8v29.4h29.2c2.7,0,4.9-2.1,4.9-4.8V3.2H23.5z"/>
<rect x="17" y="10.7" class="st0" width="6.6" height="6.6"/>
</svg>
